<svg xmlns="http://www.w3.org/2000/svg" viewBox="0 0 232.83 176.63"><defs><style>.cls-1{fill:#54abe0;}.cls-2{font-size:42.55px;font-family:Superclarendon-Regular, Superclarendon;}.cls-2,.cls-5,.cls-7{fill:#231f20;}.cls-3{letter-spacing:-0.06em;}.cls-4{letter-spacing:0em;}.cls-5{font-size:19.39px;font-family:Superclarendon-Light, Superclarendon;font-weight:300;}.cls-6{letter-spacing:-0.06em;}</style></defs><g id="Layer_2" data-name="Layer 2"><g id="Layer_1-2" data-name="Layer 1"><path class="cls-1" d="M131.87,68.86c0,4.18,0,8.35,0,12.52,0,7.52-4.5,12.42-12,12.73-5.81.23-11.65.21-17.46,0C95,93.84,90.32,88.74,90.22,81.29c0-2.78,0-5.56,0-8.34,0-3.12-1.67-4.59-4.71-4.71-3.78-.15-7.57.24-11.35-.5a11.67,11.67,0,0,1-9.87-11.65c-.06-5.81,0-11.63,0-17.45a11.86,11.86,0,0,1,11.61-12c1.14-.05,2.28,0,3.42,0,3.69,0,5.18,2.28,3.92,5.77-.42,1.16-1.24,1.09-2.1,1.11-1.39,0-2.79,0-4.18,0-3.69.22-5.61,2-5.69,5.72-.12,5.31-.14,10.63,0,15.93.11,4,1.93,5.52,6,5.7,3.77.16,7.58-.52,11.32.54,5.64,1.61,9,5.8,9,11.61,0,2.78,0,5.56,0,8.34.06,3.8,1.63,5.65,5.46,5.79,5.31.19,10.64.19,15.94,0,4.23-.16,5.91-2,5.94-6.24q.08-12.14,0-24.28c0-4.08-1.65-5.66-5.82-5.71-5.31-.06-10.63,0-15.94,0-7.8-.06-12.84-5-12.93-12.78s0-15.68,0-23.52c0-8.7,3.69-13.29,12.36-14.1A76.23,76.23,0,0,1,122.25.8a11.32,11.32,0,0,1,9.62,11.38c0,2.78-.06,5.56,0,8.34.11,3.88,2,5.83,5.81,6,2.91.14,5.83,0,8.73.11,6.16.23,10.5,4,11.39,10.12A78.51,78.51,0,0,1,158,56.42c-1.16,10.61-8.79,12.34-17.38,11.74-2.56-.18-1.76-2.36-1.81-3.85s-.48-3.23,1.87-3.41a6.23,6.23,0,0,1,1.14,0c8.78.81,9.35-1.77,9.06-9.65-.14-3.92,0-7.84,0-11.76,0-4.12-1.56-5.72-5.69-5.93-2.77-.14-5.57,0-8.35-.09-7.12-.24-11.77-5-11.86-12.08,0-2.91.07-5.82,0-8.73-.13-3.12-1.83-5-5-5-5.82-.08-11.64-.06-17.46,0-3,0-4.79,1.64-4.82,4.68-.06,8.85,0,17.7,0,26.55,0,3.82,2.61,5,5.81,5,5.44.12,10.89,0,16.33.06,7.5.09,12,4.62,12.09,12,0,4.29,0,8.59,0,12.89Z"/><text class="cls-2" transform="translate(0 144.27)">MEDI<tspan class="cls-3" x="131.41" y="0">C</tspan><tspan class="cls-4" x="162.39" y="0">AL</tspan></text><text class="cls-5" transform="translate(0.73 163.94)">CLINIC GLO<tspan class="cls-6" x="130.54" y="0">B</tspan><tspan x="145.06" y="0">AL 1998</tspan></text><rect class="cls-7" x="1.45" y="173.59" width="231.38" height="3.04"/></g></g></svg>